# xmcd
#
# Track frame offsets:
#	150
#	13775
#	26488
#	39891
#	51172
#	66066
#	71500
#	85225
#	97905
#	111245
#	124861
#	138828
#	152410
#	164671
#	177623
#	191667
#	205243
#	219702
#	233063
#	247590
#	262171
#	292199
#	307409
#
# Disc length: 4268
#
# Revision: 3
# Processed by: cddbd v1.5.1PL0 Copyright (c) Steve Scherf et al.
# Submitted via: CDmax 1.9
# Normalized: r1:TSWAP
#
DISCID=5110aa17
DTITLE=Various Artist - The roots of Taj Mahal
DYEAR=2000
DGENRE=Blues
TTITLE0=Sleepy John Estes - Milk Cow Blues
TTITLE1=Robert Johnson - Come on in My Kitchen
TTITLE2=Sonny Boy Williamson - Sugar Mama
TTITLE3=Blind Wille Mctell - Statesboro Blues
TTITLE4=Blind Willie Johnson - John The Revelator
TTITLE5=Leadbelly - Lining Track
TTITLE6=Blind Lemon Jefferson - Conrrina Blues
TTITLE7=Sleepy John Estes - Everybody Ought To Make A Change
TTITLE8=Mississippi John Hurt - Stack O'Lee Blues
TTITLE9=Robert Johnson - Sweet Home Chicago
TTITLE10=Washboard Sam - Sopisticated Mama
TTITLE11=Sonny Boy Williamson - Good Morning Little Schoolgirl
TTITLE12=Henry Thomas - Fishing Blues
TTITLE13=LeadBelly - Keep Your Hands Off Her
TTITLE14=Blind Willie Johnson - You're Gonna Need Somebody On Your Bond
TTITLE15=Will Bennett - Railroad Bill
TTITLE16=Sleepy John Estes - Divin' Duck Blues
TTITLE17=Robert Johnson - Dust My Broom
TTITLE18=Barbecue Bob - Motherless Chile
TTITLE19=Mississippi Sheiks - Sittin' On Top Of The World
TTITLE20=Son House - Walkin' Blues
TTITLE21=Mississippi John Hurt - Frankie And Albert
TTITLE22=Blind Boy Fuller - Piccolo Rag
EXTD=
EXTT0=
EXTT1=
EXTT2=
EXTT3=
EXTT4=
EXTT5=
EXTT6=
EXTT7=
EXTT8=
EXTT9=
EXTT10=
EXTT11=
EXTT12=
EXTT13=
EXTT14=
EXTT15=
EXTT16=
EXTT17=
EXTT18=
EXTT19=
EXTT20=
EXTT21=
EXTT22=
PLAYORDER=
